<?xml version="1.0"?>
<svg xmlns="http://www.w3.org/2000/svg" xmlns:xlink="http://www.w3.org/1999/xlink" data-test-id="chip-icon-svg" height="5000px" viewBox="0 0 90 90" width="5000px" style="overflow: visible;">
  <defs>
    <radialGradient cx="32.104%" cy="26.032%" fx="32.104%" fy="26.032%" id="ChipGradientGold" r="79.796%">
      <stop offset="0%" stop-color="#FFF9C7"/>
      <stop offset="2%" stop-color="#FFF8C5"/>
      <stop offset="28%" stop-color="#FFF1AE"/>
      <stop offset="44%" stop-color="#FFEEA6"/>
      <stop offset="100%" stop-color="#E9B66C"/>
    </radialGradient>
    <radialGradient cx="32.1036817%" cy="26.0321988%" fx="32.1036817%" fy="26.0321988%" id="croppedIconGradient" r="79.7958223%">
      <stop offset="0%" stop-color="#FFF9C7"/>
      <stop offset="2%" stop-color="#FFF8C5"/>
      <stop offset="28%" stop-color="#FFF1AE"/>
      <stop offset="44%" stop-color="#FFEEA6"/>
      <stop offset="100%" stop-color="#E9B66C"/>
    </radialGradient>
    <rect height="88" id="path-c190" rx="2.66666667" width="89" x="0" y="0"/>
    <filter filterUnits="objectBoundingBox" height="100.0%" id="filter-c190" width="100.0%" x="0.0%" y="0.0%">
      <feGaussianBlur in="SourceGraphic" stdDeviation="0"/>
    </filter>
    <filter filterUnits="objectBoundingBox" height="102.3%" id="filter-c290" width="102.2%" x="-1.1%" y="-1.1%">
      <feGaussianBlur in="SourceAlpha" result="shadowBlurInner1" stdDeviation="0.5"/>
      <feOffset dx="1" dy="1" in="shadowBlurInner1" result="shadowOffsetInner1"/>
      <feComposite in="shadowOffsetInner1" in2="SourceAlpha" k2="-1" k3="1" operator="arithmetic" result="shadowInnerInner1"/>
      <feColorMatrix in="shadowInnerInner1" type="matrix" values="0 0 0 0 1   0 0 0 0 1   0 0 0 0 1  0 0 0 0.4 0"/>
    </filter>
    <polygon id="path-c290" points="0 0 52.6583333 0 52.6583333 66.75 0 66.75"/>
    <path d="M52.6583333,45.6896375 C52.6583333,36.7862092 47.2615419,31.0966153 41.8731527,28.4660204 C33.9796206,24.6115853 24.0560949,22.3267625 24.0560949,12.5777572 C24.0560949,5.30130242 29.5398501,0.139592406 35.5726949,0.00601691406 C35.3979273,0.00361014844 35.2235797,0 35.048392,0 C34.6946555,0 34.34428,0.0124349557 33.9930642,0.0224631458 C24.6039243,0.41516707 13.9977125,6.1452749 11.8984001,15.3174587 C11.8219393,15.6507957 11.322003,15.6552081 11.2493231,15.32147 C10.768292,13.1200817 10.8670189,10.7301634 11.560628,8.61902883 C9.5671845,10.3374595 7.78253791,12.2712957 6.24449857,14.381628 C5.46098494,15.5549262 4.80728671,16.8012297 4.34558083,18.1289621 C2.99197176,22.0215043 3.51123334,26.7564146 6.36717201,29.9433734 C9.05212407,32.9385932 13.3667004,34.0505189 16.8007167,36.0529479 C20.2263307,38.0509645 23.2364514,40.7076327 24.628711,44.3863739 C26.1159165,48.3150177 25.8348599,52.7378506 24.2480873,56.6139467 C24.1081891,56.9537018 23.5822057,56.8373748 23.605312,56.4739531 C23.9582082,50.8517486 20.9770754,45.5676947 15.4450071,43.1172062 C12.5373943,41.8287843 9.32603875,41.3370019 6.42388748,40.0293259 C3.79060951,38.8431916 0.4078472,36.5326966 -8.40229088e-05,33.53507 C0.036886057,50.7787434 13.7326202,64.9590054 31.3060116,66.7404131 C44.0153168,67.0926031 52.6583333,57.7222623 52.6583333,45.6896375" id="path-c390"/>
    <filter filterUnits="objectBoundingBox" height="112.0%" id="filter-c390" width="115.2%" x="-7.6%" y="-6.0%">
      <feGaussianBlur in="SourceAlpha" result="shadowBlurInner1" stdDeviation="3"/>
      <feOffset dx="1" dy="2" in="shadowBlurInner1" result="shadowOffsetInner1"/>
      <feComposite in="shadowOffsetInner1" in2="SourceAlpha" k2="-1" k3="1" operator="arithmetic" result="shadowInnerInner1"/>
      <feColorMatrix in="shadowInnerInner1" type="matrix" values="0 0 0 0 0   0 0 0 0 0   0 0 0 0 0  0 0 0 0.649037608 0"/>
    </filter>
    <polygon id="path-c490" points="0 0 44.5 0 44.5 67.5 0 67.5"/>
    <path d="M12.44231,0.758426966 C6.71030069,0.89386147 1.5,6.12740861 1.5,13.5047253 C1.5,23.3898173 10.9286764,25.7064387 18.4285875,29.6141106 C23.5482777,32.2817229 28.6759512,38.050094 28.6759512,47.0778408 C28.6759512,59.2779273 20.4639298,68.7786781 8.38839033,68.4215866 C9.55674627,68.5476667 10.7426655,68.6143672 11.9441521,68.6143672 C30.3360785,68.6143672 45.2460885,53.422927 45.2460885,34.6833468 C45.2460885,16.112958 30.6043173,1.03010939 12.44231,0.758426966" id="path-c590"/>
    <filter filterUnits="objectBoundingBox" height="105.9%" id="filter-c490" width="109.1%" x="-4.6%" y="-2.9%">
      <feGaussianBlur in="SourceAlpha" result="shadowBlurInner1" stdDeviation="1.5"/>
      <feOffset dx="0" dy="1" in="shadowBlurInner1" result="shadowOffsetInner1"/>
      <feComposite in="shadowOffsetInner1" in2="SourceAlpha" k2="-1" k3="1" operator="arithmetic" result="shadowInnerInner1"/>
      <feColorMatrix in="shadowInnerInner1" type="matrix" values="0 0 0 0 0   0 0 0 0 0   0 0 0 0 0  0 0 0 0.433621066 0"/>
    </filter>
    <path d="M3.846 0h82.308c1.337 0 1.822.14 2.311.4.49.262.873.646 1.134 1.135.262.489.401.974.401 2.31v82.31c0 1.336-.14 1.821-.4 2.31a2.726 2.726 0 01-1.135 1.134c-.489.262-.974.401-2.31.401H3.844c-1.336 0-1.821-.14-2.31-.4A2.726 2.726 0 01.4 88.464C.139 87.976 0 87.491 0 86.155V3.844c0-1.336.14-1.821.4-2.31A2.726 2.726 0 011.536.4C2.024.139 2.509 0 3.845 0z" id="path-190"/>
    <filter filterUnits="objectBoundingBox" height="166.7%" id="filter-290" width="177.8%" x="-36.1%" y="-25%">
      <feOffset dx="10" dy="10" in="SourceAlpha" result="shadowOffsetOuter1"/>
      <feGaussianBlur in="shadowOffsetOuter1" result="shadowBlurOuter1" stdDeviation="7.5"/>
      <feColorMatrix in="shadowBlurOuter1" result="shadowMatrixOuter1" values="0 0 0 0 0 0 0 0 0 0 0 0 0 0 0 0 0 0 0.3 0"/>
      <feOffset dx="-10" in="SourceAlpha" result="shadowOffsetOuter2"/>
      <feGaussianBlur in="shadowOffsetOuter2" result="shadowBlurOuter2" stdDeviation="5"/>
      <feColorMatrix in="shadowBlurOuter2" result="shadowMatrixOuter2" values="0 0 0 0 0 0 0 0 0 0 0 0 0 0 0 0 0 0 0.05 0"/>
      <feOffset dx="5" dy="4" in="SourceAlpha" result="shadowOffsetOuter3"/>
      <feGaussianBlur in="shadowOffsetOuter3" result="shadowBlurOuter3" stdDeviation="2"/>
      <feColorMatrix in="shadowBlurOuter3" result="shadowMatrixOuter3" values="0 0 0 0 0 0 0 0 0 0 0 0 0 0 0 0 0 0 0.25 0"/>
      <feMerge>
        <feMergeNode in="shadowMatrixOuter1"/>
        <feMergeNode in="shadowMatrixOuter2"/>
        <feMergeNode in="shadowMatrixOuter3"/>
      </feMerge>
    </filter>
    <filter filterUnits="objectBoundingBox" height="148.9%" id="filter-390" width="160%" x="-27.2%" y="-16.1%">
      <feGaussianBlur in="SourceAlpha" result="shadowBlurInner1" stdDeviation="3.5"/>
      <feOffset dx="-2" dy="-2" in="shadowBlurInner1" result="shadowOffsetInner1"/>
      <feComposite in="shadowOffsetInner1" in2="SourceAlpha" k2="-1" k3="1" operator="arithmetic" result="shadowInnerInner1"/>
      <feColorMatrix in="shadowInnerInner1" values="0 0 0 0 0.469033062 0 0 0 0 0.351022125 0 0 0 0 0.256037712 0 0 0 1 0"/>
    </filter>
    <rect height="88" id="path-590" rx="2" width="88" x="1" y="1"/>
    <filter filterUnits="objectBoundingBox" height="102.3%" id="filter-690" width="102.3%" x="-1.1%" y="-1.1%">
      <feGaussianBlur in="SourceAlpha" result="shadowBlurInner1" stdDeviation="0.5"/>
      <feOffset dx="1" dy="1" in="shadowBlurInner1" result="shadowOffsetInner1"/>
      <feComposite in="shadowOffsetInner1" in2="SourceAlpha" k2="-1" k3="1" operator="arithmetic" result="shadowInnerInner1"/>
      <feColorMatrix in="shadowInnerInner1" values="0 0 0 0 1 0 0 0 0 1 0 0 0 0 1 0 0 0 0.4 0"/>
    </filter>
    <path d="M0 0.0000154862688L19.724168 0.0000154862688 19.724168 25.7700805 0 25.7700805z" id="path-890"/>
    <path d="M19.724 17.64c0-3.438-2.021-5.635-4.04-6.65-2.956-1.488-6.673-2.37-6.673-6.134 0-2.81 2.054-4.802 4.313-4.854L13.128 0c-.132 0-.264.005-.395.009-3.517.151-7.49 2.364-8.276 5.905-.029.128-.216.13-.243.001a5.153 5.153 0 01.116-2.587A13.075 13.075 0 002.34 5.552 6.467 6.467 0 001.628 7c-.507 1.503-.313 3.33.757 4.561 1.006 1.157 2.622 1.586 3.908 2.359 1.283.771 2.41 1.797 2.932 3.217.557 1.517.452 3.224-.142 4.72-.053.132-.25.087-.241-.053.132-2.17-.985-4.21-3.057-5.157-1.089-.497-2.292-.687-3.379-1.192C1.42 14.996.153 14.104 0 12.947c.014 6.657 5.144 12.132 11.726 12.82 4.76.135 7.998-3.482 7.998-8.128" id="path-1090"/>
    <filter filterUnits="objectBoundingBox" height="107.8%" id="filter-1090" width="110.1%" x="-5.1%" y="-3.9%">
      <feGaussianBlur in="SourceAlpha" result="shadowBlurInner1" stdDeviation="0.5"/>
      <feOffset dy="1" in="shadowBlurInner1" result="shadowOffsetInner1"/>
      <feComposite in="shadowOffsetInner1" in2="SourceAlpha" k2="-1" k3="1" operator="arithmetic" result="shadowInnerInner1"/>
      <feColorMatrix in="shadowInnerInner1" values="0 0 0 0 0 0 0 0 0 0 0 0 0 0 0 0 0 0 0.5 0"/>
    </filter>
    <path d="M0 0.0000464588065L16.3187069 0.0000464588065 16.3187069 25.8374458 0 25.8374458z" id="path-1290"/>
    <path d="M4.082 0C1.944.052 0 2.044 0 4.853 0 8.617 3.517 9.5 6.315 10.987c1.91 1.016 3.823 3.213 3.823 6.65 0 4.645-3.064 8.263-7.568 8.127.435.048.878.073 1.326.073 6.86 0 12.423-5.784 12.423-12.92C16.319 5.848 10.857.104 4.082 0" id="path-1490"/>
    <filter filterUnits="objectBoundingBox" height="111.6%" id="filter-1490" width="118.4%" x="-9.2%" y="-5.8%">
      <feGaussianBlur in="SourceAlpha" result="shadowBlurInner1" stdDeviation="1"/>
      <feOffset dy="1" in="shadowBlurInner1" result="shadowOffsetInner1"/>
      <feComposite in="shadowOffsetInner1" in2="SourceAlpha" k2="-1" k3="1" operator="arithmetic" result="shadowInnerInner1"/>
      <feColorMatrix in="shadowInnerInner1" values="0 0 0 0 0 0 0 0 0 0 0 0 0 0 0 0 0 0 0.433621066 0"/>
    </filter>
  </defs>
  <g fill="none" fill-rule="evenodd" id="Chip" stroke="none" stroke-width="1">
    <g id="Shape">
      <use fill="#000000" filter="url(#filter-290)" xlink:href="#path-190"/>
      <use fill="#E8C482" xlink:href="#path-190"/>
    </g>
    <g>
      <use fill="url(#ChipGradientGold)" xlink:href="#path-590"/>
      <use fill="#000" filter="url(#filter-690)" xlink:href="#path-590"/>
    </g>
    <g transform="translate(7, 57)">
      <text fill="#E71324">
        <tspan x="0" y="15">
          <tspan stroke="#E71324" font-size="24" font-weight="200" stroke-width="1px">8</tspan>
          <tspan stroke="#E71324" font-size="14.5" font-weight="200"/>
          <tspan stroke="#E71324" font-size="12.5" font-weight="200"/>
        </tspan>
      </text>
      <text font-size="10" font-weight="400" fill="#E71324">
        <tspan x="0" y="26">Gen 2</tspan>
      </text>
    </g>
    <g transform="translate(7, 6)"/>
    <g fill="#E71324" fill-rule="evenodd" id="Snapdragon" transform="translate(6.372228, 7.839750)">
      <path d="M3.94552209,0 C1.83652209,0 0.297522088,1.1685 0.297522088,2.85 C0.297522088,4.08975 1.01002209,5.016 2.63452209,5.42925 L4.65802209,5.97075 C5.74102209,6.25575 6.26827209,6.71175 6.26827209,7.50975 C6.26827209,8.30775 5.52727209,9.0915 4.01677209,9.0915 C2.69152209,9.0915 1.79377209,8.493 1.22377209,7.85175 C1.08127209,7.68075 0.896022088,7.59525 0.696522088,7.752 L0.140772088,8.1795 C-0.0587279118,8.33625 -0.0302279118,8.5785 0.126522088,8.76375 C0.710772088,9.4905 1.96477209,10.3455 3.94552209,10.3455 C6.56752209,10.3455 7.79302209,8.835 7.79302209,7.39575 C7.79302209,5.97075 6.92377209,5.13 5.28502209,4.7025 L3.20452209,4.1325 C2.06452209,3.83325 1.79377209,3.3345 1.79377209,2.7645 C1.79377209,1.7955 2.76277209,1.23975 3.90277209,1.23975 C4.90027209,1.23975 5.68402209,1.6245 6.38227209,2.23725 C6.59602209,2.40825 6.79552209,2.394 6.95227209,2.23725 L7.37977209,1.824 C7.50802209,1.69575 7.59352209,1.5105 7.36552209,1.2825 C6.66727209,0.55575 5.47027209,0 3.94552209,0 Z" id="Path"/>
      <path d="M14.2377721,9.918 C14.2377721,10.0605 14.3660221,10.16025 14.5085221,10.16025 L15.3350221,10.16025 C15.4775221,10.16025 15.6057721,10.0605 15.6057721,9.918 L15.6057721,6.17025 C15.6057721,4.4745 14.5085221,3.249 12.7130221,3.249 C11.5872721,3.249 10.7322721,3.762 10.3475221,4.43175 L10.3475221,3.69075 C10.3475221,3.54825 10.2192721,3.43425 10.0910221,3.43425 L9.23602209,3.43425 C9.09352209,3.43425 8.97952209,3.54825 8.97952209,3.705 L8.97952209,9.90375 C8.97952209,10.04625 9.09352209,10.16025 9.23602209,10.16025 L10.0910221,10.16025 C10.2192721,10.16025 10.3475221,10.0605 10.3475221,9.918 L10.3475221,6.5265 C10.3475221,5.3295 11.1312721,4.503 12.3425221,4.503 C13.5537721,4.503 14.2377721,5.2725 14.2377721,6.5265 L14.2377721,9.918 Z" id="Path"/>
      <path d="M16.7210221,6.783 C16.7210221,8.90625 18.2885221,10.3455 20.0982721,10.3455 C21.1670221,10.3455 22.0220221,9.81825 22.4067721,9.0915 L22.4067721,9.90375 C22.4067721,10.04625 22.5350221,10.16025 22.6775221,10.16025 L23.5182721,10.16025 C23.6607721,10.16025 23.7747721,10.04625 23.7747721,9.90375 L23.7747721,3.705 C23.7747721,3.54825 23.6607721,3.43425 23.5182721,3.43425 L22.6775221,3.43425 C22.5350221,3.43425 22.4067721,3.54825 22.4067721,3.705 L22.4067721,4.503 C22.0362721,3.77625 21.1670221,3.23475 20.1125221,3.23475 C18.2885221,3.23475 16.7210221,4.674 16.7210221,6.783 Z M18.1175221,6.79725 C18.1175221,5.51475 19.0152721,4.51725 20.2692721,4.51725 C21.5090221,4.51725 22.4210221,5.51475 22.4210221,6.79725 C22.4210221,8.0655 21.5090221,9.0915 20.2692721,9.0915 C19.0152721,9.0915 18.1175221,8.0655 18.1175221,6.79725 Z" id="Shape"/>
      <path d="M26.7140221,4.503 L26.7140221,3.705 C26.7140221,3.54825 26.6000221,3.43425 26.4575221,3.43425 L25.6167721,3.43425 C25.4742721,3.43425 25.3602721,3.54825 25.3602721,3.705 L25.3602721,12.89625 C25.3602721,13.03875 25.4742721,13.15275 25.6167721,13.15275 L26.4717721,13.15275 C26.6142721,13.15275 26.7282721,13.03875 26.7282721,12.89625 L26.7282721,9.13425 C27.1557721,9.87525 28.0677721,10.3455 29.0510221,10.3455 C30.8892721,10.3455 32.4140221,8.90625 32.4140221,6.783 C32.4140221,4.68825 30.8750221,3.249 29.0652721,3.249 C27.9965221,3.249 27.1272721,3.77625 26.7140221,4.503 Z M26.7140221,6.79725 C26.7140221,5.529 27.6260221,4.51725 28.8800221,4.51725 C30.1197721,4.51725 31.0175221,5.529 31.0175221,6.79725 C31.0175221,8.07975 30.1197721,9.0915 28.8800221,9.0915 C27.6260221,9.0915 26.7140221,8.07975 26.7140221,6.79725 Z" id="Shape"/>
      <path d="M33.2015221,6.79725 C33.2015221,8.90625 34.7690221,10.3455 36.5787721,10.3455 C37.6475221,10.3455 38.4740221,9.81825 38.8872721,9.0915 L38.8872721,9.90375 C38.8872721,10.04625 39.0155221,10.16025 39.1580221,10.16025 L39.9987721,10.16025 C40.1412721,10.16025 40.2552721,10.04625 40.2552721,9.90375 L40.2552721,0.44175 C40.2552721,0.29925 40.1412721,0.18525 39.9987721,0.18525 L39.1580221,0.18525 C39.0155221,0.18525 38.8872721,0.29925 38.8872721,0.44175 L38.8872721,4.48875 C38.5025221,3.77625 37.6332721,3.249 36.5645221,3.249 C34.7690221,3.249 33.2015221,4.68825 33.2015221,6.79725 Z M34.5980221,6.79725 C34.5980221,5.529 35.4957721,4.51725 36.7497721,4.51725 C38.0037721,4.51725 38.9015221,5.529 38.9015221,6.79725 C38.9015221,8.07975 38.0037721,9.0915 36.7497721,9.0915 C35.4957721,9.0915 34.5980221,8.07975 34.5980221,6.79725 Z" id="Shape"/>
      <path d="M44.9330221,3.3915 C44.0922721,3.3915 43.4510221,3.9045 43.1660221,4.51725 L43.1660221,3.69075 C43.1660221,3.54825 43.0377721,3.43425 42.9095221,3.43425 L42.1115221,3.43425 C41.9690221,3.43425 41.8550221,3.54825 41.8550221,3.705 L41.8550221,9.90375 C41.8550221,10.04625 41.9690221,10.16025 42.1115221,10.16025 L42.9665221,10.16025 C43.0947721,10.16025 43.2230221,10.0605 43.2230221,9.918 L43.2230221,6.783 C43.2230221,5.34375 43.8927721,4.80225 44.8617721,4.80225 L45.1467721,4.80225 C45.2607721,4.80225 45.4175221,4.731 45.4175221,4.51725 L45.4175221,3.6765 C45.4175221,3.46275 45.2750221,3.3915 45.1467721,3.3915 L44.9330221,3.3915 Z" id="Path"/>
      <path d="M45.7205221,6.783 C45.7205221,8.90625 47.2880221,10.3455 49.0977721,10.3455 C50.1665221,10.3455 51.0215221,9.81825 51.4062721,9.0915 L51.4062721,9.90375 C51.4062721,10.04625 51.5345221,10.16025 51.6770221,10.16025 L52.5177721,10.16025 C52.6602721,10.16025 52.7742721,10.04625 52.7742721,9.90375 L52.7742721,3.705 C52.7742721,3.54825 52.6602721,3.43425 52.5177721,3.43425 L51.6770221,3.43425 C51.5345221,3.43425 51.4062721,3.54825 51.4062721,3.705 L51.4062721,4.503 C51.0357721,3.77625 50.1665221,3.23475 49.1120221,3.23475 C47.2880221,3.23475 45.7205221,4.674 45.7205221,6.783 Z M47.1170221,6.79725 C47.1170221,5.51475 48.0147721,4.51725 49.2687721,4.51725 C50.5085221,4.51725 51.4205221,5.51475 51.4205221,6.79725 C51.4205221,8.0655 50.5085221,9.0915 49.2687721,9.0915 C48.0147721,9.0915 47.1170221,8.0655 47.1170221,6.79725 Z" id="Shape"/>
      <path d="M57.5375221,12.18375 C56.3120221,12.18375 55.6850221,11.5425 55.5140221,10.887 C55.4712721,10.75875 55.3572721,10.716 55.2147721,10.7445 L54.3312721,10.98675 C54.2030221,11.001 54.1460221,11.12925 54.1745221,11.24325 C54.4880221,12.49725 55.6992721,13.3665 57.5090221,13.3665 C59.7462721,13.3665 61.0430221,12.0555 61.0430221,10.21725 L61.0430221,3.705 C61.0430221,3.5625 60.9290221,3.43425 60.7722721,3.43425 L59.9315221,3.43425 C59.7890221,3.43425 59.6750221,3.5625 59.6750221,3.705 L59.6750221,4.51725 C59.2902721,3.7905 58.4067721,3.249 57.3380221,3.249 C55.5282721,3.249 53.9750221,4.6455 53.9750221,6.76875 C53.9750221,8.892 55.5140221,10.26 57.3807721,10.26 C58.4352721,10.26 59.2902721,9.747 59.6750221,9.04875 L59.6750221,10.1745 C59.6750221,11.35725 58.9625221,12.18375 57.5375221,12.18375 Z M55.3715221,6.76875 C55.3715221,5.5005 56.2692721,4.503 57.5232721,4.503 C58.7630221,4.503 59.6607721,5.5005 59.6607721,6.76875 C59.6607721,8.05125 58.7630221,9.0345 57.5232721,9.0345 C56.2692721,9.0345 55.3715221,8.05125 55.3715221,6.76875 Z" id="Shape"/>
      <path d="M62.2295221,6.79725 C62.2295221,8.82075 63.7970221,10.3455 65.7635221,10.3455 C67.7300221,10.3455 69.2975221,8.82075 69.2975221,6.79725 C69.2975221,4.788 67.7300221,3.249 65.7635221,3.249 C63.7970221,3.249 62.2295221,4.788 62.2295221,6.79725 Z M63.6117721,6.79725 C63.6117721,5.51475 64.5095221,4.51725 65.7635221,4.51725 C67.0175221,4.51725 67.9152721,5.51475 67.9152721,6.79725 C67.9152721,8.0655 67.0175221,9.07725 65.7635221,9.07725 C64.5095221,9.07725 63.6117721,8.0655 63.6117721,6.79725 Z" id="Shape"/>
      <path d="M75.7422721,9.918 C75.7422721,10.0605 75.8705221,10.16025 76.0130221,10.16025 L76.8395221,10.16025 C76.9820221,10.16025 77.1102721,10.0605 77.1102721,9.918 L77.1102721,6.17025 C77.1102721,4.4745 76.0130221,3.249 74.2175221,3.249 C73.0917721,3.249 72.2367721,3.762 71.8520221,4.43175 L71.8520221,3.69075 C71.8520221,3.54825 71.7237721,3.43425 71.5955221,3.43425 L70.7405221,3.43425 C70.5980221,3.43425 70.4840221,3.54825 70.4840221,3.705 L70.4840221,9.90375 C70.4840221,10.04625 70.5980221,10.16025 70.7405221,10.16025 L71.5955221,10.16025 C71.7237721,10.16025 71.8520221,10.0605 71.8520221,9.918 L71.8520221,6.5265 C71.8520221,5.3295 72.6357721,4.503 73.8470221,4.503 C75.0582721,4.503 75.7422721,5.2725 75.7422721,6.5265 L75.7422721,9.918 Z" id="Path"/>
    </g>
    <g id="Icon" transform="translate(1, 1.8)">
      <mask fill="white" id="mask-c190">
        <use xlink:href="#path-c190"/>
      </mask>
      <g fill-rule="nonzero" filter="url(#filter-c190)" id="mask" opacity="0">
        <use fill="url(#croppedIconGradient)" xlink:href="#path-c190"/>
        <use fill="black" fill-opacity="1" filter="url(#filter-c290)" xlink:href="#path-c190"/>
      </g>
      <g id="Page-1" mask="url(#mask-c190)">
        <g transform="translate(44.25, 26.75)">
          <mask fill="white" id="mask-c290">
            <use xlink:href="#path-c290"/>
          </mask>
          <g fill="none" id="Clip-2" stroke="none"/>
          <g fill="none" id="Fill-1" mask="url(#mask-c290)" stroke="none">
            <use fill="#E71324" fill-rule="evenodd" xlink:href="#path-c390"/>
            <use fill="black" fill-opacity="1" filter="url(#filter-c390)" xlink:href="#path-c390"/>
          </g>
        </g>
      </g>
      <g id="Page-1" mask="url(#mask-c190)">
        <g transform="translate(66.5, 26) ">
          <mask fill="white" id="mask-c390">
            <use xlink:href="#path-c490"/>
          </mask>
          <g fill="none" id="Clip-2" stroke="none"/>
          <g fill="none" id="Fill-1" mask="url(#mask-c390)" stroke="none">
            <use fill="#FFFFFF" fill-rule="evenodd" xlink:href="#path-c590"/>
            <use fill="black" fill-opacity="1" filter="url(#filter-c490)" xlink:href="#path-c590"/>
          </g>
        </g>
      </g>
    </g>
  </g>
</svg>